<svg width="3975" height="972" viewBox="0 0 3975 972" fill="none" xmlns="http://www.w3.org/2000/svg">
<g filter="url(#filter0_d_502_60)">
<mask id="mask0_502_60" style="mask-type:alpha" maskUnits="userSpaceOnUse" x="0" y="0" width="3940" height="938">
<path d="M0 417.212C0 612.181 158.053 770.234 353.022 770.234C475.501 770.234 583.411 707.862 646.723 613.148L532.067 537.138C532.067 537.138 471.496 633.417 353.022 633.417C234.548 633.417 138.506 537.375 138.506 418.901C138.506 300.427 234.548 204.385 353.022 204.385C478.016 204.385 532.067 300.664 532.067 300.664L645.237 219.07C581.731 125.595 474.547 64.1895 353.022 64.1895C158.053 64.1895 0 222.243 0 417.212Z" fill="#D9D9D9"/>
<path d="M1874.9 299.382L2008.34 249.989V762.196H1878.28L1874.9 299.382Z" fill="#D9D9D9"/>
<path d="M932.403 263.492C1072.33 263.492 1185.77 376.928 1185.77 516.857C1185.77 656.787 1072.33 770.223 932.403 770.223C792.473 770.222 679.038 656.787 679.038 516.857C679.038 376.928 792.473 263.492 932.403 263.492ZM932.407 398.617C867.106 398.617 814.169 451.554 814.169 516.854C814.17 582.155 867.106 635.092 932.407 635.092C997.707 635.092 1050.64 582.155 1050.64 516.854C1050.64 451.554 997.707 398.617 932.407 398.617Z" fill="#D9D9D9"/>
<path d="M3690.7 270.254C3827.83 270.254 3939 381.421 3939 518.552C3939 529.427 3940.36 568.853 3939 579.359H3588.71C3610.24 613.464 3648.74 636.789 3690.7 636.789C3722.94 636.789 3753.13 623.023 3775.16 601.181L3871.11 689.151C3825.85 736.998 3761.76 766.85 3690.7 766.85C3553.57 766.849 3442.4 655.683 3442.4 518.552C3442.4 381.421 3553.57 270.254 3690.7 270.254ZM3748.56 411.344C3726.73 399.771 3712.17 393.661 3687.3 394.349C3663.53 395.007 3649.3 401.472 3629.45 413.051C3619.44 418.887 3608.39 429.096 3599.88 437.796C3595.62 442.154 3591.97 446.151 3589.39 449.058C3588.1 450.511 3587.08 451.693 3586.38 452.512C3586.03 452.921 3585.76 453.24 3585.57 453.457C3585.48 453.565 3585.41 453.648 3585.37 453.704C3585.34 453.732 3585.33 453.753 3585.31 453.768C3585.31 453.775 3585.3 453.78 3585.3 453.784C3585.3 453.786 3585.3 453.787 3585.3 453.788L3585.3 453.79L3584.07 455.259H3800.89L3799.46 453.749L3798.81 454.363C3799.45 453.765 3799.46 453.749 3799.46 453.748L3799.46 453.743C3799.45 453.739 3799.45 453.733 3799.44 453.726C3799.43 453.71 3799.41 453.688 3799.38 453.658C3799.32 453.599 3799.24 453.512 3799.13 453.397C3798.91 453.169 3798.59 452.832 3798.17 452.399C3797.33 451.535 3796.12 450.288 3794.59 448.756C3791.53 445.692 3787.23 441.486 3782.24 436.918C3772.29 427.799 3759.55 417.173 3748.56 411.344Z" fill="#D9D9D9"/>
<path d="M1756.67 86.8916V506.729H1756.47C1756.6 510.092 1756.67 513.471 1756.67 516.865C1756.67 656.795 1643.23 770.231 1503.3 770.231C1363.37 770.231 1249.94 656.795 1249.94 516.865C1249.94 376.936 1363.37 263.5 1503.3 263.5C1546.01 263.5 1586.24 274.065 1621.54 292.723V43.916L1756.67 86.8916ZM1503.3 398.629C1438 398.629 1385.07 451.565 1385.07 516.865C1385.07 582.166 1438 635.103 1503.3 635.103C1568.6 635.102 1621.54 582.166 1621.54 516.865C1621.54 451.565 1568.6 398.629 1503.3 398.629Z" fill="#D9D9D9"/>
<path d="M2418.78 0C2418.78 49.4726 2417.09 128.372 2417.09 128.372C2416.92 128.387 2280.28 140.276 2280.28 270.256V273.647H2420.48V395.263H2280.28V760.097H2148.53V270.265C2156.97 0.0458967 2418.78 0 2418.78 0Z" fill="#D9D9D9"/>
<path d="M2936.77 270.277L2666.52 937.003H2524.63L2616.66 711.367L2428.9 271.96L2565.2 272.658L2684.6 544.807L2796.58 270.261L2936.77 270.277Z" fill="#D9D9D9"/>
<path d="M3080.46 273.628L3195.16 557.95L3306.19 274.795L3446.38 274.812L3252.73 761.242H3136.19L3126.05 734.217L3126.3 733.572L3126.09 733.597L2939.06 273.626L3080.46 273.628Z" fill="#D9D9D9"/>
</mask>
<g mask="url(#mask0_502_60)">
<rect width="3938.99" height="935.763" fill="url(#paint0_linear_502_60)"/>
</g>
</g>
<defs>
<filter id="filter0_d_502_60" x="0" y="0" width="3974.82" height="971.594" filterUnits="userSpaceOnUse" color-interpolation-filters="sRGB">
<feFlood flood-opacity="0" result="BackgroundImageFix"/>
<feColorMatrix in="SourceAlpha" type="matrix" values="0 0 0 0 0 0 0 0 0 0 0 0 0 0 0 0 0 0 127 0" result="hardAlpha"/>
<feOffset dx="17.9158" dy="17.9158"/>
<feGaussianBlur stdDeviation="8.95792"/>
<feComposite in2="hardAlpha" operator="out"/>
<feColorMatrix type="matrix" values="0 0 0 0 0 0 0 0 0 0 0 0 0 0 0 0 0 0 0.25 0"/>
<feBlend mode="normal" in2="BackgroundImageFix" result="effect1_dropShadow_502_60"/>
<feBlend mode="normal" in="SourceGraphic" in2="effect1_dropShadow_502_60" result="shape"/>
</filter>
<linearGradient id="paint0_linear_502_60" x1="0" y1="467.881" x2="3938.99" y2="467.881" gradientUnits="userSpaceOnUse">
<stop stop-color="#F0EDF4"/>
<stop offset="1" stop-color="#8C4987"/>
</linearGradient>
</defs>
</svg>
